<mxfile host="app.diagrams.net" agent="Mozilla/5.0 (Macintosh; Intel Mac OS X 10_15_7) AppleWebKit/537.36 (KHTML, like Gecko) Chrome/133.0.0.0 Safari/537.36" version="26.1.1">
  <diagram name="第 1 页" id="FkuSmB82q9SXT7clnEpL">
    <mxGraphModel dx="954" dy="537" grid="1" gridSize="10" guides="1" tooltips="1" connect="1" arrows="1" fold="1" page="1" pageScale="1" pageWidth="827" pageHeight="1169" math="0" shadow="0">
      <root>
        <mxCell id="0" />
        <mxCell id="1" parent="0" />
        <mxCell id="EoOFbFxf0sOsoztNJ4bL-1" value="人脸识别模型" style="rounded=1;whiteSpace=wrap;html=1;" vertex="1" parent="1">
          <mxGeometry x="294" y="130" width="120" height="60" as="geometry" />
        </mxCell>
        <mxCell id="EoOFbFxf0sOsoztNJ4bL-2" value="实时图像" style="rounded=1;whiteSpace=wrap;html=1;" vertex="1" parent="1">
          <mxGeometry x="83" y="130" width="120" height="60" as="geometry" />
        </mxCell>
        <mxCell id="EoOFbFxf0sOsoztNJ4bL-3" value="" style="endArrow=classic;html=1;rounded=0;exitX=1;exitY=0.5;exitDx=0;exitDy=0;entryX=0;entryY=0.5;entryDx=0;entryDy=0;" edge="1" parent="1" source="EoOFbFxf0sOsoztNJ4bL-2" target="EoOFbFxf0sOsoztNJ4bL-1">
          <mxGeometry width="50" height="50" relative="1" as="geometry">
            <mxPoint x="390" y="360" as="sourcePoint" />
            <mxPoint x="440" y="310" as="targetPoint" />
          </mxGeometry>
        </mxCell>
        <mxCell id="EoOFbFxf0sOsoztNJ4bL-4" value="人脸识别" style="rounded=1;whiteSpace=wrap;html=1;" vertex="1" parent="1">
          <mxGeometry x="480" y="130" width="120" height="60" as="geometry" />
        </mxCell>
        <mxCell id="EoOFbFxf0sOsoztNJ4bL-5" value="" style="endArrow=classic;html=1;rounded=0;exitX=1;exitY=0.5;exitDx=0;exitDy=0;entryX=0;entryY=0.5;entryDx=0;entryDy=0;" edge="1" parent="1" source="EoOFbFxf0sOsoztNJ4bL-1" target="EoOFbFxf0sOsoztNJ4bL-4">
          <mxGeometry width="50" height="50" relative="1" as="geometry">
            <mxPoint x="202" y="170" as="sourcePoint" />
            <mxPoint x="290" y="170" as="targetPoint" />
          </mxGeometry>
        </mxCell>
        <mxCell id="EoOFbFxf0sOsoztNJ4bL-6" value="" style="endArrow=classic;html=1;rounded=0;exitX=0.5;exitY=1;exitDx=0;exitDy=0;entryX=0.5;entryY=0;entryDx=0;entryDy=0;" edge="1" parent="1" source="EoOFbFxf0sOsoztNJ4bL-1" target="EoOFbFxf0sOsoztNJ4bL-7">
          <mxGeometry width="50" height="50" relative="1" as="geometry">
            <mxPoint x="390" y="360" as="sourcePoint" />
            <mxPoint x="340" y="260" as="targetPoint" />
          </mxGeometry>
        </mxCell>
        <mxCell id="EoOFbFxf0sOsoztNJ4bL-7" value="工具封装" style="rounded=1;whiteSpace=wrap;html=1;" vertex="1" parent="1">
          <mxGeometry x="140" y="255" width="120" height="60" as="geometry" />
        </mxCell>
        <mxCell id="EoOFbFxf0sOsoztNJ4bL-8" value="智能体配置" style="rounded=1;whiteSpace=wrap;html=1;" vertex="1" parent="1">
          <mxGeometry x="140" y="360" width="120" height="60" as="geometry" />
        </mxCell>
        <mxCell id="EoOFbFxf0sOsoztNJ4bL-9" value="" style="endArrow=classic;html=1;rounded=0;" edge="1" parent="1" source="EoOFbFxf0sOsoztNJ4bL-7" target="EoOFbFxf0sOsoztNJ4bL-8">
          <mxGeometry width="50" height="50" relative="1" as="geometry">
            <mxPoint x="350" y="200" as="sourcePoint" />
            <mxPoint x="350" y="268" as="targetPoint" />
          </mxGeometry>
        </mxCell>
        <mxCell id="EoOFbFxf0sOsoztNJ4bL-10" value="REST 接口" style="rounded=1;whiteSpace=wrap;html=1;" vertex="1" parent="1">
          <mxGeometry x="440" y="255" width="120" height="60" as="geometry" />
        </mxCell>
        <mxCell id="EoOFbFxf0sOsoztNJ4bL-11" value="" style="endArrow=classic;html=1;rounded=0;exitX=0.5;exitY=1;exitDx=0;exitDy=0;entryX=0.5;entryY=0;entryDx=0;entryDy=0;" edge="1" parent="1" source="EoOFbFxf0sOsoztNJ4bL-1" target="EoOFbFxf0sOsoztNJ4bL-10">
          <mxGeometry width="50" height="50" relative="1" as="geometry">
            <mxPoint x="390" y="360" as="sourcePoint" />
            <mxPoint x="440" y="310" as="targetPoint" />
          </mxGeometry>
        </mxCell>
        <mxCell id="EoOFbFxf0sOsoztNJ4bL-12" value="场景应用调用" style="rounded=1;whiteSpace=wrap;html=1;" vertex="1" parent="1">
          <mxGeometry x="440" y="360" width="120" height="60" as="geometry" />
        </mxCell>
        <mxCell id="EoOFbFxf0sOsoztNJ4bL-13" value="" style="endArrow=classic;html=1;rounded=0;entryX=0.5;entryY=0;entryDx=0;entryDy=0;exitX=0.5;exitY=1;exitDx=0;exitDy=0;" edge="1" parent="1" source="EoOFbFxf0sOsoztNJ4bL-10" target="EoOFbFxf0sOsoztNJ4bL-12">
          <mxGeometry width="50" height="50" relative="1" as="geometry">
            <mxPoint x="390" y="360" as="sourcePoint" />
            <mxPoint x="440" y="310" as="targetPoint" />
          </mxGeometry>
        </mxCell>
        <mxCell id="EoOFbFxf0sOsoztNJ4bL-15" value="人脸数据库" style="rounded=1;whiteSpace=wrap;html=1;" vertex="1" parent="1">
          <mxGeometry x="294" y="20" width="120" height="60" as="geometry" />
        </mxCell>
        <mxCell id="EoOFbFxf0sOsoztNJ4bL-16" value="" style="endArrow=classic;html=1;rounded=0;exitX=0.5;exitY=1;exitDx=0;exitDy=0;entryX=0.5;entryY=0;entryDx=0;entryDy=0;" edge="1" parent="1" source="EoOFbFxf0sOsoztNJ4bL-15" target="EoOFbFxf0sOsoztNJ4bL-1">
          <mxGeometry width="50" height="50" relative="1" as="geometry">
            <mxPoint x="390" y="210" as="sourcePoint" />
            <mxPoint x="440" y="160" as="targetPoint" />
          </mxGeometry>
        </mxCell>
        <mxCell id="EoOFbFxf0sOsoztNJ4bL-17" value="人脸登录" style="rounded=1;whiteSpace=wrap;html=1;" vertex="1" parent="1">
          <mxGeometry x="293.5" y="360" width="120" height="60" as="geometry" />
        </mxCell>
        <mxCell id="EoOFbFxf0sOsoztNJ4bL-18" value="" style="endArrow=classic;html=1;rounded=0;exitX=0.5;exitY=1;exitDx=0;exitDy=0;entryX=0.5;entryY=0;entryDx=0;entryDy=0;" edge="1" parent="1" source="EoOFbFxf0sOsoztNJ4bL-1" target="EoOFbFxf0sOsoztNJ4bL-17">
          <mxGeometry width="50" height="50" relative="1" as="geometry">
            <mxPoint x="360" y="230" as="sourcePoint" />
            <mxPoint x="440" y="280" as="targetPoint" />
          </mxGeometry>
        </mxCell>
      </root>
    </mxGraphModel>
  </diagram>
</mxfile>
